<svg width="89" height="26" viewBox="0 0 89 26" fill="none" xmlns="http://www.w3.org/2000/svg">
<mask id="mask0_0_1" style="mask-type:alpha" maskUnits="userSpaceOnUse" x="1" y="6" width="88" height="14">
<path d="M1.38 20V6H6.06C7.68667 6 9.02667 6.29333 10.08 6.88C11.1467 7.45333 11.9333 8.26667 12.44 9.32C12.96 10.36 13.22 11.5867 13.22 13C13.22 14.4133 12.96 15.6467 12.44 16.7C11.9333 17.74 11.1533 18.5533 10.1 19.14C9.04667 19.7133 7.7 20 6.06 20H1.38ZM4.08 17.68H5.92C7.06667 17.68 7.96667 17.4933 8.62 17.12C9.28667 16.7467 9.76 16.2133 10.04 15.52C10.32 14.8133 10.46 13.9733 10.46 13C10.46 12.0133 10.32 11.1733 10.04 10.48C9.76 9.77333 9.28667 9.23333 8.62 8.86C7.96667 8.48667 7.06667 8.3 5.92 8.3H4.08V17.68Z" fill="white"/>
<path d="M30.38 20V6H35.62C36.7533 6 37.6933 6.19333 38.44 6.58C39.1867 6.96667 39.74 7.48667 40.1 8.14C40.46 8.79333 40.64 9.54 40.64 10.38C40.64 11.1533 40.4667 11.8667 40.12 12.52C39.7733 13.1733 39.2267 13.7067 38.48 14.12C37.7333 14.52 36.78 14.72 35.62 14.72H33.08V20H30.38ZM33.08 12.54H35.46C36.3267 12.54 36.9467 12.3467 37.32 11.96C37.7067 11.56 37.9 11.0333 37.9 10.38C37.9 9.68667 37.7067 9.15333 37.32 8.78C36.9467 8.39333 36.3267 8.2 35.46 8.2H33.08V12.54ZM42.6652 20V6H47.9052C49.0385 6 49.9785 6.19333 50.7252 6.58C51.4718 6.96667 52.0252 7.48667 52.3852 8.14C52.7452 8.79333 52.9252 9.54 52.9252 10.38C52.9252 11.1533 52.7518 11.8667 52.4052 12.52C52.0585 13.1733 51.5118 13.7067 50.7652 14.12C50.0185 14.52 49.0652 14.72 47.9052 14.72H45.3652V20H42.6652ZM45.3652 12.54H47.7452C48.6118 12.54 49.2318 12.3467 49.6052 11.96C49.9918 11.56 50.1852 11.0333 50.1852 10.38C50.1852 9.68667 49.9918 9.15333 49.6052 8.78C49.2318 8.39333 48.6118 8.2 47.7452 8.2H45.3652V12.54ZM54.9503 20V6H57.6503V17.9H63.7903V20H54.9503ZM66.1027 20V6H75.3027V8.18H68.8027V11.84H74.7027V13.94H68.8027V17.82H75.3027V20H66.1027ZM77.7628 20V6H82.9828C84.1161 6 85.0495 6.19333 85.7828 6.58C86.5161 6.96667 87.0628 7.48667 87.4228 8.14C87.7828 8.78 87.9628 9.49333 87.9628 10.28C87.9628 11.0267 87.7895 11.7267 87.4428 12.38C87.0961 13.02 86.5495 13.54 85.8028 13.94C85.0695 14.3267 84.1228 14.52 82.9628 14.52H80.4628V20H77.7628ZM85.0228 20L82.1428 13.84H85.0628L88.1028 20H85.0228ZM80.4628 12.56H82.8228C83.6361 12.56 84.2361 12.36 84.6228 11.96C85.0095 11.56 85.2028 11.0333 85.2028 10.38C85.2028 9.72667 85.0095 9.21333 84.6228 8.84C84.2495 8.45333 83.6495 8.26 82.8228 8.26H80.4628V12.56Z" fill="white"/>
<circle cx="24.6" cy="13" r="2.75" stroke="white" stroke-width="0.5"/>
<circle cx="24" cy="13" r="3.75" stroke="white" stroke-width="0.5"/>
<circle cx="23.4" cy="13" r="4.75" stroke="white" stroke-width="0.5"/>
<circle cx="22.8" cy="13" r="5.75" stroke="white" stroke-width="0.5"/>
<circle cx="22" cy="13" r="6.75" stroke="white" stroke-width="0.5"/>
</mask>
<g mask="url(#mask0_0_1)">
<rect x="1" y="6" width="88" height="14" fill="url(#paint0_linear_0_1)"/>
</g>
<path d="M2.105 26L1.135 22.5H1.51L2.31 25.57L3.205 22.5H3.595L4.465 25.575L5.27 22.5H5.645L4.66 26H4.265L3.385 23.015L2.49 26H2.105ZM6.77027 26V22.5H8.89527V22.79H7.12027V24.095H8.74527V24.385H7.12027V25.71H8.89527V26H6.77027ZM10.1779 26V22.5H11.3529C11.5996 22.5 11.8029 22.54 11.9629 22.62C12.1229 22.7 12.2412 22.8067 12.3179 22.94C12.3979 23.0733 12.4379 23.2217 12.4379 23.385C12.4379 23.565 12.3979 23.715 12.3179 23.835C12.2412 23.955 12.1396 24.0467 12.0129 24.11C11.8896 24.1733 11.7596 24.2133 11.6229 24.23L11.6879 24.18C11.8346 24.1833 11.9712 24.2233 12.0979 24.3C12.2246 24.3767 12.3262 24.48 12.4029 24.61C12.4796 24.7367 12.5179 24.8817 12.5179 25.045C12.5179 25.2183 12.4746 25.3783 12.3879 25.525C12.3046 25.6683 12.1796 25.7833 12.0129 25.87C11.8462 25.9567 11.6379 26 11.3879 26H10.1779ZM10.5279 25.705H11.3629C11.6162 25.705 11.8112 25.645 11.9479 25.525C12.0879 25.405 12.1579 25.24 12.1579 25.03C12.1579 24.82 12.0846 24.6533 11.9379 24.53C11.7946 24.4033 11.5979 24.34 11.3479 24.34H10.5279V25.705ZM10.5279 24.05H11.3429C11.5796 24.05 11.7612 23.9933 11.8879 23.88C12.0146 23.7667 12.0779 23.6133 12.0779 23.42C12.0779 23.2333 12.0162 23.0833 11.8929 22.97C11.7696 22.8533 11.5812 22.795 11.3279 22.795H10.5279V24.05ZM13.7564 26V22.5H14.1564L15.4414 25.025L16.7314 22.5H17.1364V26H16.7864V23.14L15.5764 25.51H15.3164L14.1064 23.15V26H13.7564ZM18.2916 26L19.5816 22.5H19.9416L21.2316 26H20.8616L19.7616 22.96L18.6566 26H18.2916ZM18.8816 25.055L18.9866 24.765H20.5316L20.6366 25.055H18.8816ZM22.388 26V22.5H22.738V26H22.388ZM24.116 26V22.5H24.466V25.715H26.121V26H24.116Z" fill="#9B94AA"/>
<defs>
<linearGradient id="paint0_linear_0_1" x1="1" y1="13" x2="89" y2="13" gradientUnits="userSpaceOnUse">
<stop stop-color="#E8305A"/>
<stop offset="1" stop-color="#A020C8"/>
</linearGradient>
</defs>
</svg>
